<?xml version="1.0" encoding="UTF-8"?>
<svg width="34px" height="34px" viewBox="0 0 34 34" version="1.1" xmlns="http://www.w3.org/2000/svg" xmlns:xlink="http://www.w3.org/1999/xlink">
    <!-- Generator: Sketch 46.2 (44496) - http://www.bohemiancoding.com/sketch -->
    <title>Add Button</title>
    <desc>Created with Sketch.</desc>
    <defs>
        <rect id="path-1" x="0.441176471" y="0.441176471" width="29.1176471" height="29.1176471" rx="2"></rect>
    </defs>
    <g id="Design" stroke="none" stroke-width="1" fill="none" fill-rule="evenodd">
        <g id="Recipe-List" transform="translate(-333.000000, -142.000000)">
            <g id="Add-Button" transform="translate(335.000000, 144.000000)">
                <rect id="Rectangle-2" stroke-opacity="0.282438859" stroke="#979797" stroke-width="2.5" x="1.25" y="1.25" width="27.5" height="27.5" rx="2"></rect>
                <g id="Intersects" transform="translate(15.000000, 15.000000) rotate(90.000000) translate(-15.000000, -15.000000) " stroke="#00CC99" stroke-width="2.5">
                    <path d="M23.6605082,30 L15,15 L6.33949176,30 L23.6605082,30 Z" id="Combined-Shape"></path>
                    <path d="M23.6605082,30 L15,15 L30,15 L30,28 C30,29.1045695 29.1045695,30 28,30 L23.6605082,30 Z" id="Combined-Shape"></path>
                    <path d="M30,14.8799995 L15,14.8799995 L23.5912239,4.4408921e-16 L28,0 L28,-4.4408921e-16 C29.1045695,-6.46995335e-16 30,0.8954305 30,2 L30,14.8799995 Z" id="Combined-Shape"></path>
                    <path d="M6.40877609,-4.4408921e-16 L15,14.8799995 L23.5912239,8.8817842e-16 L6.40877609,0 Z" id="Combined-Shape"></path>
                    <path d="M6.40877609,-8.8817842e-16 L15,14.8799995 L0,14.8799995 L0,2 L-2.22044605e-16,2 C-3.57315355e-16,0.8954305 0.8954305,-1.91384796e-17 2,-2.22044605e-16 L2,0 L6.40877609,0 Z" id="Combined-Shape"></path>
                </g>
                <g id="Rectangle-3">
                    <use fill="#FFFFFF" fill-rule="evenodd" xlink:href="#path-1"></use>
                    <rect x="0.441176471" y="0.441176471" width="29.1176471" height="29.1176471" rx="2"></rect>
                </g>
                <g id="Group" transform="translate(10.700000, 10.700000)" stroke="#00CC99" stroke-width="3" stroke-linecap="square">
                    <path d="M4.45,0.7 L4.45,8.2" id="Line"></path>
                    <path d="M8.2,4.45 L0.7,4.45" id="Line"></path>
                </g>
            </g>
        </g>
    </g>
</svg>