<svg xmlns="http://www.w3.org/2000/svg" width="64" height="40" viewBox="0 0 64 40"><title>switchyards</title><g id="Layer_2" data-name="Layer 2"><g id="Layer_1-2" data-name="Layer 1"><path d="M1.82,38.17v-6a30.18,30.18,0,1,1,60.36,0v6Z" fill="#1a365d"/><path d="M32,0A32.13,32.13,0,0,0,0,32.19V40H64V32.19A32.13,32.13,0,0,0,32,0ZM62.18,38.17H1.82v-6a30.18,30.18,0,1,1,60.36,0Z" fill="#e4b921"/><path d="M5.45,34.53l0-1.76,3.46-1h0L5.53,30.64l0-1.77,5.22.11,0,1.26-3.91-.12h0l3.9,1.22,0,.9L6.77,33.32h0l3.91,0,0,1.26Z" fill="#e4b921"/><path d="M10.7,26.45l.64.5-.44,1.4L6.56,24.72l.32-1,5.61-.46L12,24.65l-.8,0Zm-.9-.68.33-1.07H8.26Z" fill="#e4b921"/><path d="M8.38,19.91l.94-1.5a2.63,2.63,0,0,1,2.08-1.48,2.62,2.62,0,0,1,1.63.46,2.44,2.44,0,0,1,.75,3.74l-1,1.59Zm4.15,1,.31-.5a1.24,1.24,0,0,0-.51-1.88,1.8,1.8,0,0,0-1-.3,1.13,1.13,0,0,0-1,.62l-.32.5Z" fill="#e4b921"/><path d="M11.89,14.79l2-2.15.84.82-1.15,1.2.59.56,1.11-1.17.84.81L15.07,16l.65.62,1.15-1.2.84.82-2,2.15Z" fill="#e4b921"/><path d="M18.62,9.11l2.12,2.76h0L20,8.44,20.91,8l2.18,2.74h0l-.84-3.4,1.24-.6,1,5.34-1.07.53-2.19-2.7h0L22,13.29l-1.11.54L17.37,9.71Z" fill="#e4b921"/><path d="M25.11,6.45l1.32-.32,1.23,5.1-1.32.32Z" fill="#e4b921"/><path d="M29.12,6.88l-1,.09L28,5.8l3.44-.3.1,1.17-1,.09.35,4.06-1.35.12Z" fill="#e4b921"/><path d="M33.24,5.48l1.35.18-.25,2,1.73.23.25-2,1.35.18L37,11.27l-1.35-.18L35.91,9l-1.73-.23-.27,2.08-1.35-.18Z" fill="#e4b921"/><path d="M43.66,10a.49.49,0,0,0-.21-.68.44.44,0,0,0-.6.16c-.14.28,0,.4.62,1.21s.71,1.36.44,1.91a1.59,1.59,0,0,1-2.38.6,1.67,1.67,0,0,1-1-2.36l.08-.15,1.21.61c-.27.54,0,.81.17.89a.51.51,0,0,0,.69-.21c.16-.31,0-.49-.59-1.16a1.73,1.73,0,0,1-.49-1.93A1.71,1.71,0,0,1,44,8.33a1.92,1.92,0,0,1,1,1.18,1.57,1.57,0,0,1-.15,1.08Z" fill="#e4b921"/><path d="M49,11.62a2.76,2.76,0,0,1,.43,3.9A2.82,2.82,0,0,1,45,12a2.9,2.9,0,0,1,.87-.73A2.75,2.75,0,0,1,49,11.62Zm-2.7,3.3a1.47,1.47,0,0,0,2.08-.26,1.5,1.5,0,0,0-.13-2.12,1.46,1.46,0,0,0-2.09.24A1.49,1.49,0,0,0,46.27,14.92Z" fill="#e4b921"/><path d="M52.85,15.77l-2.53,1.89c-.28.21-.78.61-.39,1.15s.87.2,1.2-.05l2.53-1.89.81,1.1L52,19.87a2,2,0,0,1-1.6.53A2,2,0,0,1,49,19.53,2.19,2.19,0,0,1,48.54,18a2,2,0,0,1,1-1.39L52,14.67Z" fill="#e4b921"/><path d="M55.39,19.65,56,20.88l-3.65,1.75L53,24.07l-1.06.51L50.68,21.9Z" fill="#e4b921"/><path d="M57.87,26.46l.26,1.34L53,28.8l-.26-1.34Z" fill="#e4b921"/><path d="M58.46,29.85V31l-3.26,2.11h0l3.26-.1,0,1.31-5.22.06V33.24l3.15-2.08h0l-3.17.07,0-1.31Z" fill="#e4b921"/><polygon points="47.79 33.24 40.7 33.24 40.7 18.97 39.43 18.97 39.43 34.51 47.79 34.51 47.79 33.24" fill="#e4b921"/><polygon points="42.47 31.45 42.47 18.97 41.21 18.97 41.21 32.73 47.79 32.73 47.79 31.45 42.47 31.45" fill="#e4b921"/><polygon points="44.25 29.67 44.25 18.97 42.98 18.97 42.98 30.94 47.79 30.94 47.79 29.67 44.25 29.67" fill="#e4b921"/><path d="M23.31,20.75H22.17a3.12,3.12,0,0,0-3.1,3.12V34.51h1.27V29.16h4.81v5.35h1.27V23.87A3.12,3.12,0,0,0,23.31,20.75Zm-3,7.13v-4A1.84,1.84,0,0,1,22.17,22h1.14a1.84,1.84,0,0,1,1.84,1.85v4Z" fill="#e4b921"/><path d="M23.31,22.53H22.17a1.34,1.34,0,0,0-1.33,1.34v3.5h3.8v-3.5A1.34,1.34,0,0,0,23.31,22.53Zm-1.2,3.57V23.87a.06.06,0,0,1,.06-.06h1.14a.06.06,0,0,1,.06.06V26.1Z" fill="#e4b921"/><polygon points="24.64 29.67 20.84 29.67 20.84 34.51 22.11 34.51 22.11 30.94 23.38 30.94 23.38 34.51 24.64 34.51 24.64 29.67 24.64 29.67 24.64 29.67" fill="#e4b921"/><path d="M28,22.53A4.89,4.89,0,0,0,23.31,19H22.17a4.9,4.9,0,0,0-4.88,4.91V34.51h1.27V23.87a3.63,3.63,0,0,1,3.61-3.63h1.14a3.63,3.63,0,0,1,3.61,3.63V34.51h1.27V23.87s0,0,0-.06H31v10.7h1.27v-12Z" fill="#e4b921"/><polygon points="38.86 22.53 34.57 22.53 34.57 34.51 35.84 34.51 35.84 23.81 38.86 23.81 38.86 22.53" fill="#e4b921"/><polygon points="38.86 20.75 27.97 20.75 27.97 22.02 32.8 22.02 32.8 34.51 34.07 34.51 34.07 22.02 38.86 22.02 38.86 20.75" fill="#e4b921"/><rect x="27.97" y="18.97" width="10.89" height="1.27" fill="#e4b921"/></g></g></svg>